<?xml version="1.0" standalone="no"?>
<!DOCTYPE svg PUBLIC "-//W3C//DTD SVG 20010904//EN"
 "http://www.w3.org/TR/2001/REC-SVG-20010904/DTD/svg10.dtd">
<svg version="1.0" xmlns="http://www.w3.org/2000/svg"
 width="880.000000pt" height="533.000000pt" viewBox="0 0 880.000000 533.000000"
 preserveAspectRatio="xMidYMid meet">

<g transform="translate(0.000000,533.000000) scale(0.100000,-0.100000)"
fill="#000000" stroke="none">
<path d="M6630 4924 c-859 -42 -1432 -173 -1863 -427 -50 -31 -154 -101 -231
-156 -76 -56 -143 -98 -150 -94 -6 3 -56 41 -111 83 -136 104 -205 150 -316
208 -302 161 -683 271 -1139 331 -189 25 -590 51 -786 51 -134 0 -146 -2 -165
-21 -32 -32 -106 -193 -554 -1199 -487 -1094 -438 -984 -528 -1177 -87 -184
-251 -589 -332 -817 -61 -172 -61 -181 -15 -246 34 -48 77 -54 290 -40 434 30
816 -1 1314 -106 646 -135 1145 -325 1661 -629 198 -117 211 -124 297 -161
120 -51 208 -66 398 -66 266 0 364 30 645 197 520 310 1054 516 1710 661 487
108 1065 146 1420 95 39 -6 80 -11 92 -11 29 0 96 60 118 106 16 33 15 38 -6
102 -33 100 -97 272 -192 512 -46 118 -92 240 -102 270 -31 97 -237 558 -715
1600 -392 854 -412 894 -459 920 -22 11 -174 19 -281 14z m-4308 -334 c398
-27 615 -57 878 -122 426 -105 721 -247 941 -456 l94 -89 0 -1052 c0 -636 -3
-1051 -9 -1051 -5 0 -50 26 -100 59 -588 380 -1378 583 -2546 656 -366 22
-400 26 -400 40 0 7 9 32 19 56 165 377 358 815 571 1295 144 324 271 608 281
632 18 41 19 42 68 42 27 0 118 -5 203 -10z m4453 -82 c20 -46 115 -252 210
-458 325 -705 408 -885 535 -1165 70 -154 130 -289 134 -301 7 -24 8 -24 -344
-44 -824 -48 -1398 -143 -1923 -321 -276 -93 -484 -193 -715 -342 -51 -33 -96
-56 -100 -52 -8 8 -13 1684 -5 1936 l6 176 86 78 c204 184 490 336 789 419
200 57 520 114 752 135 63 6 131 13 150 14 19 2 114 5 211 5 l176 2 38 -82z
m-5480 -2283 c1432 -58 2283 -292 2890 -795 207 -172 223 -172 430 0 555 461
1328 698 2525 774 362 23 644 35 652 28 14 -14 169 -435 166 -451 -3 -14 -22
-16 -133 -18 -310 -5 -772 -56 -1072 -118 -713 -147 -1404 -409 -1883 -716
-188 -120 -279 -149 -469 -149 -135 0 -219 15 -298 52 -27 12 -129 71 -228
131 -505 305 -1147 544 -1854 688 -280 57 -757 109 -1032 112 -124 2 -144 4
-147 18 -2 13 147 423 165 452 3 5 37 6 77 3 39 -3 134 -8 211 -11z"/>
</g>
</svg>
